<?xml version="1.0" standalone="no"?>
<!DOCTYPE svg PUBLIC "-//W3C//DTD SVG 20010904//EN"
 "http://www.w3.org/TR/2001/REC-SVG-20010904/DTD/svg10.dtd">
<svg version="1.0" xmlns="http://www.w3.org/2000/svg"
 width="768.000000pt" height="768.000000pt" viewBox="0 0 768.000000 768.000000"
 preserveAspectRatio="xMidYMid meet">
<metadata>
Created by potrace 1.14, written by Peter Selinger 2001-2017
</metadata>
<g transform="translate(0.000000,768.000000) scale(0.100000,-0.100000)"
fill="#000000" stroke="none">
<path d="M1083 6868 c-5 -7 -43 -80 -83 -163 -40 -82 -122 -248 -181 -367 -59
-120 -105 -218 -101 -218 4 0 2 -4 -4 -8 -6 -4 -37 -61 -68 -127 -112 -232
-201 -410 -209 -416 -5 -3 -7 -8 -5 -10 1 -2 -32 -74 -74 -159 -42 -85 -122
-247 -177 -359 -56 -113 -104 -207 -109 -210 -11 -9 -30 -46 -48 -93 -21 -58
-26 -190 -9 -254 8 -28 155 -334 328 -680 173 -346 373 -748 446 -893 72 -146
136 -270 142 -278 7 -7 9 -13 6 -13 -6 0 58 -127 73 -145 5 -5 8 -14 8 -18 1
-17 566 -1143 585 -1164 16 -18 24 -20 39 -12 17 9 18 18 13 87 -3 42 -8 93
-11 112 -2 19 -6 60 -9 90 -2 30 -7 78 -10 105 -5 50 -14 144 -20 220 -2 22
-6 65 -9 95 -3 30 -8 82 -11 115 -3 33 -8 83 -10 110 -2 28 -7 77 -10 110 -2
33 -7 78 -10 100 -2 22 -7 72 -10 110 -3 39 -8 86 -10 105 -2 19 -7 67 -10
105 -4 39 -8 88 -10 110 -3 22 -7 72 -10 110 -3 39 -7 86 -9 105 -3 19 -7 67
-10 105 -4 39 -8 86 -11 105 -2 19 -7 67 -10 105 -3 39 -8 93 -11 120 -3 28
-7 70 -9 95 -4 55 -14 161 -20 215 -2 22 -7 72 -10 110 -3 39 -8 90 -11 115
-5 42 -9 86 -19 205 -2 28 -6 73 -9 100 -3 28 -8 79 -12 115 -3 36 -7 83 -9
105 -2 22 -7 69 -10 105 -7 85 -16 177 -21 215 -2 17 -6 64 -9 105 -3 41 -7
91 -10 110 -2 19 -7 67 -10 105 -4 39 -9 93 -11 120 -12 120 -14 144 -19 205
-3 36 -7 83 -10 105 -3 22 -7 72 -10 110 -2 39 -5 70 -5 70 -2 0 -8 51 -15
135 -3 47 -8 98 -10 115 -2 16 -6 59 -9 95 -10 116 -16 184 -21 220 -4 37 -14
136 -20 210 -11 137 -24 251 -31 273 -6 20 -37 23 -51 5z"/>
<path d="M6522 6867 c-6 -7 -14 -36 -16 -63 -8 -78 -17 -175 -22 -226 -2 -27
-6 -69 -8 -95 -3 -27 -7 -77 -10 -113 -3 -36 -8 -85 -11 -110 -3 -25 -7 -70
-10 -100 -5 -67 -12 -144 -20 -225 -4 -33 -8 -78 -10 -100 -2 -22 -6 -67 -9
-100 -3 -33 -8 -85 -11 -115 -7 -80 -14 -147 -20 -213 -3 -32 -8 -84 -10 -115
-2 -31 -5 -57 -6 -57 0 0 -2 -16 -4 -35 -5 -64 -16 -184 -20 -220 -2 -19 -7
-69 -10 -110 -3 -41 -7 -91 -10 -110 -5 -45 -14 -129 -20 -202 -6 -75 -14
-152 -20 -208 -2 -25 -7 -74 -10 -110 -3 -36 -7 -85 -10 -110 -3 -25 -7 -74
-10 -110 -3 -36 -7 -81 -10 -100 -2 -19 -6 -69 -10 -110 -3 -41 -8 -91 -10
-110 -2 -19 -6 -68 -10 -108 -7 -86 -12 -138 -20 -207 -3 -27 -8 -79 -11 -115
-5 -61 -6 -82 -19 -205 -2 -27 -7 -79 -10 -115 -7 -82 -15 -165 -20 -210 -3
-19 -7 -69 -10 -110 -3 -41 -8 -90 -10 -110 -2 -19 -7 -66 -10 -105 -4 -38 -9
-88 -11 -110 -3 -22 -7 -67 -10 -100 -2 -33 -6 -82 -9 -110 -3 -27 -7 -79 -10
-115 -3 -36 -7 -81 -10 -100 -2 -19 -7 -64 -10 -100 -3 -36 -8 -85 -10 -110
-6 -53 -16 -171 -20 -220 -2 -19 -6 -63 -9 -97 -5 -55 -4 -63 13 -73 15 -7 23
-6 35 5 11 12 1545 3070 1551 3095 1 3 12 28 25 55 19 41 23 67 24 145 0 122
-1 130 -46 214 -54 103 -418 837 -418 843 0 3 -10 19 -22 36 -13 18 -21 32
-18 32 2 0 -53 117 -124 260 -317 642 -400 810 -401 815 0 3 -7 16 -15 30 -8
14 -19 34 -25 45 -13 25 -38 30 -53 12z"/>
<path d="M1445 6724 c-7 -7 -11 -25 -9 -41 10 -78 20 -183 29 -308 3 -38 7
-88 10 -110 5 -41 11 -107 20 -205 2 -30 7 -81 10 -112 3 -32 7 -82 10 -110 2
-29 7 -78 10 -108 5 -52 7 -78 20 -225 2 -33 7 -80 10 -105 3 -25 8 -74 11
-110 3 -36 7 -87 9 -115 3 -27 7 -79 10 -115 3 -36 8 -85 11 -110 3 -25 7 -70
9 -100 2 -30 6 -79 9 -107 6 -52 11 -101 21 -218 3 -33 8 -78 10 -100 2 -22 7
-74 10 -115 4 -41 9 -97 11 -125 12 -122 15 -163 18 -200 5 -52 16 -168 21
-225 5 -49 14 -142 19 -205 7 -69 17 -178 21 -226 3 -26 7 -75 10 -110 3 -35
7 -86 10 -114 3 -27 7 -75 10 -105 3 -30 7 -75 10 -100 2 -25 7 -79 10 -120 4
-41 8 -88 10 -105 2 -16 7 -66 10 -110 6 -77 10 -119 20 -215 3 -25 7 -76 10
-115 5 -67 8 -96 20 -211 3 -28 8 -82 10 -120 3 -38 7 -82 9 -99 2 -16 7 -66
10 -110 9 -106 13 -115 42 -115 20 0 30 11 57 68 17 37 35 69 40 70 4 2 7 11
7 21 0 9 4 21 9 26 7 9 273 533 805 1591 64 127 116 236 116 243 0 6 4 11 10
11 5 0 14 18 21 39 l12 39 -762 1524 c-530 1061 -766 1525 -777 1525 -9 0 -22
-6 -29 -13z"/>
<path d="M6162 6728 c-13 -17 -235 -460 -238 -476 -1 -7 -7 -19 -13 -25 -9
-12 -144 -276 -146 -287 -1 -3 -19 -39 -40 -80 -21 -41 -40 -77 -40 -80 -1 -3
-46 -93 -100 -200 -137 -273 -145 -289 -145 -299 0 -5 -7 -14 -15 -21 -8 -7
-15 -20 -15 -29 0 -9 -6 -23 -12 -29 -7 -7 -13 -16 -14 -20 0 -8 -152 -312
-163 -327 -4 -5 -16 -30 -26 -55 -10 -25 -27 -56 -36 -70 -9 -14 -17 -27 -17
-30 0 -5 -146 -301 -162 -330 -5 -8 -59 -116 -121 -240 -61 -124 -116 -234
-122 -245 -6 -11 -12 -22 -12 -25 -1 -3 -21 -44 -45 -93 l-44 -88 248 -492
c137 -270 354 -703 484 -962 129 -259 239 -471 244 -473 4 -2 8 -9 8 -15 0
-25 74 -156 91 -160 34 -9 41 16 54 193 5 77 14 177 20 230 3 25 7 70 10 100
2 30 7 82 10 115 12 126 14 147 20 222 4 43 9 96 11 118 2 22 6 67 9 100 3 33
7 83 10 110 3 28 8 74 10 103 3 28 7 76 10 105 3 28 7 79 10 112 5 56 7 82 19
210 3 28 8 82 12 120 3 39 7 84 9 100 2 17 6 68 10 115 3 47 8 96 10 110 2 14
7 61 10 105 3 44 8 94 10 110 3 17 7 64 10 105 5 79 13 165 20 215 2 17 7 71
10 120 3 50 8 103 11 118 2 15 7 58 9 95 5 62 9 109 20 217 5 44 11 112 20
220 5 65 12 136 20 210 2 17 6 66 10 110 4 44 9 96 10 115 2 19 6 69 10 110 3
41 8 91 10 110 3 19 7 67 10 105 3 39 7 90 10 115 2 25 7 72 10 105 3 33 7 78
9 100 3 22 7 74 10 115 4 41 8 95 11 120 2 25 7 70 9 100 28 279 27 259 6 270
-24 13 -25 13 -38 -2z"/>
<path d="M3279 3382 l-115 -3 -608 -1215 c-334 -668 -606 -1222 -604 -1232 3
-16 114 -17 1873 -17 l1870 0 3 22 c2 13 -5 35 -16 50 -11 16 -19 30 -19 33 0
3 -262 533 -584 1178 -513 1031 -587 1173 -609 1178 -27 6 -993 11 -1191 6z"/>
</g>
</svg>
